<?xml version="1.0" ?><!-- Uploaded to: SVG Repo, www.svgrepo.com, Generator: SVG Repo Mixer Tools -->
<svg fill="#000000" width="800px" height="800px" viewBox="0 0 96 96" data-name="Your Icons" id="Your_Icons" xmlns="http://www.w3.org/2000/svg"><title/><path d="M74.61,22.66q-.36,0-.72,0a49,49,0,0,1-6-1l-1.35-.33.07-1.39c.09-2,1.77-7.06,8.29-7.06H75c7,.06,10.27,3.47,10.63,3.86l1.45,1.6-1.9,1C84.94,19.44,78.91,22.66,74.61,22.66Zm-6-2.94a45.84,45.84,0,0,0,5.44.92c3.19.31,8.34-2.17,9.79-2.9C83,17,80.15,14.86,75,14.82h-.1C69.73,14.82,68.8,18.65,68.64,19.72Z"/><path d="M73.59,36.34l-2.16-.12c-.81,0-8-.48-11.39-3a51.39,51.39,0,0,1-4.61-4l-1-1,.77-1.15c0-.06,4-5.89,10.82-1.68,5.91,3.66,7,8.31,7.13,8.83ZM57,28a46.31,46.31,0,0,0,4.2,3.63c2.26,1.69,7.2,2.42,9.86,2.61-.36-1.14-1.73-4.41-6.11-7.12S57.74,27.06,57,28Z"/><path d="M54,29c-2.15,0-6.11-.8-7.62-6.35-1.84-6.75.51-10.9.78-11.35l1.14-1.86L49.81,11c.22.23,5.48,5.76,6.27,10.05a49.09,49.09,0,0,1,.65,6.11l.06,1.38-1.35.32A7.59,7.59,0,0,1,54,29ZM48.68,12.76c-.52,1.09-1.72,4.41-.36,9.4,1.4,5.14,5.26,5,6.4,4.84a46.84,46.84,0,0,0-.61-5.55C53.53,18.28,49.79,14,48.68,12.76Z"/><path d="M59.13,92H36.92A9.93,9.93,0,0,1,27,82V41.73a1,1,0,0,1,2,0V82a7.93,7.93,0,0,0,7.88,8H59.13A7.93,7.93,0,0,0,67,82V41.73a1,1,0,0,1,2,0V82A9.93,9.93,0,0,1,59.13,92Z"/><path d="M48,47.21c-10.1,0-21-1.89-21-6s10.88-6,21-6,21,1.89,21,6S58.13,47.21,48,47.21Zm0-10.08c-12.28,0-19,2.67-19,4s6.7,4,19,4,19-2.67,19-4S60.31,37.13,48,37.13Z"/><path d="M48,43.85a.9.9,0,0,1-.28,0,1,1,0,0,1-.67-1.24c.28-1,7-23.11,20.94-23.11a1,1,0,0,1,0,2c-12.42,0-19,21.46-19,21.68A1,1,0,0,1,48,43.85Z"/><path d="M20.94,22.66c-4.3,0-10.32-3.22-10.59-3.36l-1.9-1,1.45-1.6c.36-.39,3.68-3.8,10.64-3.86h.11c6.53,0,8.2,5.09,8.3,7.06L29,21.27l-1.35.33a48.58,48.58,0,0,1-6,1Q21.32,22.66,20.94,22.66Zm-9.25-4.92c1.44.73,6.59,3.2,9.78,2.9a46.1,46.1,0,0,0,5.45-.92c-.16-1.06-1.09-4.9-6.27-4.9h-.1C15.41,14.86,12.57,17,11.69,17.74Z"/><path d="M22,36.34l.43-2.13c0-.21,1.08-5.09,7.12-8.83,6.79-4.21,10.79,1.62,10.83,1.68l.77,1.15-1,1a48.93,48.93,0,0,1-4.61,4c-3.42,2.55-10.59,3-11.39,3ZM34.33,25.86a7.09,7.09,0,0,0-3.76,1.22c-4.4,2.72-5.75,6-6.1,7.12,2.66-.19,7.59-.92,9.85-2.61A46.5,46.5,0,0,0,38.53,28,5.46,5.46,0,0,0,34.33,25.86Z"/><path d="M36,23.45a6,6,0,0,1-1.41-.15L33.21,23l.06-1.4,1,.05-1-.06a49.52,49.52,0,0,1,.65-6.09c.79-4.29,6-9.82,6.27-10L41.7,3.87l1.13,1.86c.28.45,2.62,4.6.78,11.35C42.19,22.31,38.38,23.45,36,23.45Zm-1.7-1.81h0Zm1-.24c1.06.13,5,.27,6.4-4.84s.16-8.3-.35-9.4c-1.12,1.23-4.86,5.53-5.44,8.69A45.59,45.59,0,0,0,35.28,21.4Z"/><path d="M47.53,43.85a1,1,0,0,1-1-.71c-.06-.22-6.61-21.68-19-21.68a1,1,0,0,1,0-2c13.91,0,20.67,22.16,21,23.11a1,1,0,0,1-.68,1.24A.9.9,0,0,1,47.53,43.85Z"/><path d="M50.94,64.19H45.11a2.12,2.12,0,0,1-2.14-2c-.14-2.54-.84-3.09-1.8-3.85-.25-.2-.51-.4-.77-.64a5.58,5.58,0,0,0-2.29-.67,10.86,10.86,0,0,1-5.9-2.42c-2.95-2.74-5.05-10.7-5.14-11A1,1,0,1,1,29,43.1c.56,2.15,2.48,8.14,4.57,10.08a9.12,9.12,0,0,0,4.88,1.92,6.33,6.33,0,0,1,3.31,1.17c.22.2.44.37.65.54,1.11.88,2.36,1.86,2.56,5.31a.16.16,0,0,0,.14.07h5.83a.16.16,0,0,0,.14-.07c.2-3.45,1.45-4.43,2.56-5.31.21-.17.43-.34.65-.54A6.33,6.33,0,0,1,57.6,55.1a9.12,9.12,0,0,0,4.88-1.92c2.1-2,4-7.93,4.56-10.08a1,1,0,0,1,1.22-.71A1,1,0,0,1,69,43.61c-.09.34-2.19,8.3-5.15,11a10.8,10.8,0,0,1-5.89,2.42,5.69,5.69,0,0,0-2.3.67,9,9,0,0,1-.77.64c-.95.76-1.65,1.31-1.79,3.85A2.12,2.12,0,0,1,50.94,64.19Z"/><path d="M58,82.5a8.11,8.11,0,0,1-5.74-2.32,5.94,5.94,0,0,0-8.52,0,8.24,8.24,0,0,1-11.46,0A5.91,5.91,0,0,0,28,78.38a1,1,0,1,1,0-2.06,8.09,8.09,0,0,1,5.73,2.32,5.94,5.94,0,0,0,8.52,0,8.24,8.24,0,0,1,11.46,0,6,6,0,0,0,8.53,0A8.09,8.09,0,0,1,68,76.32a1,1,0,1,1,0,2.06,5.91,5.91,0,0,0-4.26,1.8A8.09,8.09,0,0,1,58,82.5Z"/><path d="M41.08,76.24a.54.54,0,0,1-.35-.14.51.51,0,0,1,0-.71s1.45-1.49,1.06-2.79a4.31,4.31,0,0,1,1.31-5.08c1.56-1.44,1.17-4.29,1.16-4.32a.51.51,0,0,1,.43-.56.5.5,0,0,1,.56.42c0,.14.47,3.39-1.47,5.19a3.32,3.32,0,0,0-1,4.06c.57,1.88-1.23,3.71-1.3,3.78A.51.51,0,0,1,41.08,76.24Z"/><path d="M55.15,76.24a.51.51,0,0,1-.36-.15c-.07-.07-1.87-1.9-1.3-3.78a3.32,3.32,0,0,0-1-4.06c-1.94-1.8-1.49-5-1.47-5.19a.5.5,0,0,1,.56-.42.5.5,0,0,1,.43.56s-.39,2.88,1.16,4.32a4.31,4.31,0,0,1,1.32,5.08c-.4,1.3,1,2.77,1,2.79a.5.5,0,0,1,0,.71A.54.54,0,0,1,55.15,76.24Z"/><path d="M44.81,74.44l-.12,0a.48.48,0,0,1-.36-.6c.1-.42.19-.72.26-.94l.08-.26-.12-.09c-.12-.1-.28-.23-.47-.41-.94-.87-.25-1.9.2-2.58a2.7,2.7,0,0,0,.54-1.14c0-1.21,1.4-5,1.56-5.39a.5.5,0,1,1,.93.35,26.42,26.42,0,0,0-1.49,5,3.26,3.26,0,0,1-.71,1.69c-.55.83-.61,1.06-.35,1.29s.32.28.42.37c.58.48.58.71.37,1.43-.07.2-.15.48-.25.88A.5.5,0,0,1,44.81,74.44Z"/><path d="M47.8,72.31a.48.48,0,0,1-.36-.16.49.49,0,0,1,0-.7c.49-.45.42-.75.09-1.82a13.69,13.69,0,0,1-.43-1.58c-.31-1.51-.22-1.9.21-2.38a1.43,1.43,0,0,0,.25-.35,3.2,3.2,0,0,0-.21-1.95.5.5,0,0,1,.94-.36,4.08,4.08,0,0,1,.16,2.76,2.71,2.71,0,0,1-.39.57c-.15.16-.24.26,0,1.51a15.17,15.17,0,0,0,.4,1.48c.33,1,.61,2-.36,2.85A.47.47,0,0,1,47.8,72.31Z"/><path d="M50.94,75.06a.54.54,0,0,1-.25-.06.52.52,0,0,1-.19-.69,2,2,0,0,0,.19-.89,6.35,6.35,0,0,1,.48-2.14c.43-1,.43-1-.19-1.58-.12-.12-.27-.24-.43-.39-1.42-1.33-1.2-5.71-1.17-6.21a.48.48,0,0,1,.53-.47.5.5,0,0,1,.46.53c-.1,1.69.05,4.65.86,5.41l.42.38c1.09,1,1.07,1.22.44,2.71a5.46,5.46,0,0,0-.4,1.84,2.94,2.94,0,0,1-.32,1.31A.5.5,0,0,1,50.94,75.06Z"/><path d="M62.32,42.53c-1.14,0-2-.59-2-1.36s.86-1.35,2-1.35,2,.58,2,1.35S63.46,42.53,62.32,42.53Zm0-1.71c-.63,0-1,.26-1,.35s.37.36,1,.36,1-.27,1-.36S63,40.82,62.32,40.82Z"/><path d="M53,40c-1.14,0-2-.58-2-1.35s.86-1.36,2-1.36,2,.58,2,1.36S54.1,40,53,40Zm0-1.71c-.63,0-1,.26-1,.36s.37.35,1,.35,1-.26,1-.35S53.58,38.28,53,38.28Z"/><path d="M42.13,40.82c-1.45,0-2.54-.72-2.54-1.67s1.09-1.67,2.54-1.67,2.54.72,2.54,1.67S43.58,40.82,42.13,40.82Zm0-2.34c-.93,0-1.54.4-1.54.67s.61.67,1.54.67,1.54-.41,1.54-.67S43.06,38.48,42.13,38.48Z"/><path d="M32.62,41.9c-1,0-1.74-.59-1.74-1.33s.76-1.32,1.74-1.32,1.75.58,1.75,1.32S33.6,41.9,32.62,41.9Zm0-1.65c-.46,0-.74.22-.74.32s.28.33.74.33.75-.23.75-.33S33.09,40.25,32.62,40.25Z"/><path d="M36.5,41.23a1.24,1.24,0,0,1-.92-.36,1.16,1.16,0,0,1-.32-.87,1.8,1.8,0,0,1,.68-1.25,1.65,1.65,0,0,1,2.2-.13h0a1.16,1.16,0,0,1,.32.87,1.8,1.8,0,0,1-.68,1.25A2,2,0,0,1,36.5,41.23Zm.72-2a1,1,0,0,0-.64.26.81.81,0,0,0-.32.53c0,.09,0,.11,0,.12s.5.09.85-.2a.81.81,0,0,0,.32-.53c0-.08,0-.11,0-.12h0A.31.31,0,0,0,37.22,39.26Z"/><path d="M44.52,44.36a2,2,0,0,1-1.32-.56,1.78,1.78,0,0,1-.61-1.28,1.11,1.11,0,0,1,.36-.85h0a1.64,1.64,0,0,1,2.19.23,1.78,1.78,0,0,1,.61,1.28,1.13,1.13,0,0,1-.36.86A1.28,1.28,0,0,1,44.52,44.36Zm-.89-2a.15.15,0,0,0,0,.12.8.8,0,0,0,.29.55c.32.3.71.34.83.23a.15.15,0,0,0,0-.12.8.8,0,0,0-.29-.55C44.13,42.33,43.74,42.29,43.63,42.4Z"/><path d="M52.24,42.93a2,2,0,0,1-1.32-.56,1.76,1.76,0,0,1-.61-1.27,1.17,1.17,0,0,1,.36-.86h0a1.65,1.65,0,0,1,2.19.23,1.8,1.8,0,0,1,.61,1.28,1.13,1.13,0,0,1-.36.86A1.28,1.28,0,0,1,52.24,42.93Zm-.89-2a.16.16,0,0,0,0,.13.82.82,0,0,0,.29.54c.33.3.72.34.83.24a.16.16,0,0,0,0-.13.78.78,0,0,0-.29-.54C51.85,40.9,51.46,40.87,51.35,41Z"/><path d="M57.58,44.13a2,2,0,0,1-1.32-.55,1.82,1.82,0,0,1-.62-1.28,1.17,1.17,0,0,1,.36-.86,1.66,1.66,0,0,1,2.2.24A1.76,1.76,0,0,1,58.81,43a1.17,1.17,0,0,1-.36.86A1.23,1.23,0,0,1,57.58,44.13Zm-.71-2a.33.33,0,0,0-.19.05h0a.16.16,0,0,0,0,.13.8.8,0,0,0,.3.54c.32.3.71.34.83.24a.16.16,0,0,0,0-.13.82.82,0,0,0-.29-.54A1,1,0,0,0,56.87,42.12Zm-.53-.31h0Z"/><path d="M39.35,43.35A1.33,1.33,0,1,1,40.59,42,1.28,1.28,0,0,1,39.35,43.35Zm0-1.65c-.12,0-.23.15-.23.33s.11.32.23.32.24-.15.24-.32S39.48,41.7,39.35,41.7Z"/><path d="M58.65,40.81a1.77,1.77,0,0,1-.62-.13,1.44,1.44,0,0,1-.8-.79,1.09,1.09,0,0,1,0-.85A1.32,1.32,0,0,1,59,38.52h0a1.38,1.38,0,0,1,.8.79,1,1,0,0,1,0,.85A1.24,1.24,0,0,1,58.65,40.81Zm-.24-1.42c-.13,0-.22,0-.24.09a.39.39,0,0,0,.25.28.44.44,0,0,0,.47,0,.39.39,0,0,0-.25-.28A.56.56,0,0,0,58.41,39.39Z"/><path d="M76.34,92H28.5a1,1,0,0,1,0-2H76.34a1,1,0,0,1,0,2Z"/><path d="M25.72,92H21.65a1,1,0,0,1,0-2h4.07a1,1,0,0,1,0,2Z"/><path d="M18.32,92H16a1,1,0,0,1,0-2h2.31a1,1,0,0,1,0,2Z"/></svg>