<?xml version="1.0" ?><!-- Uploaded to: SVG Repo, www.svgrepo.com, Generator: SVG Repo Mixer Tools -->
<svg width="800px" height="800px" viewBox="0 0 128 128" id="Cultivate" xmlns="http://www.w3.org/2000/svg"><defs><style>.cls-1{fill:#231f20;}</style></defs><path class="cls-1" d="M64,34a3,3,0,1,0-3-3A3,3,0,0,0,64,34Zm0-4a1,1,0,1,1-1,1A1,1,0,0,1,64,30Z"/><path class="cls-1" d="M55,41a3,3,0,1,0-3-3A3,3,0,0,0,55,41Zm0-4a1,1,0,1,1-1,1A1,1,0,0,1,55,37Z"/><path class="cls-1" d="M63,48a3,3,0,1,0-3-3A3,3,0,0,0,63,48Zm0-4a1,1,0,1,1-1,1A1,1,0,0,1,63,44Z"/><path class="cls-1" d="M58,53a3,3,0,1,0,3,3A3,3,0,0,0,58,53Zm0,4a1,1,0,1,1,1-1A1,1,0,0,1,58,57Z"/><path class="cls-1" d="M63,63a3,3,0,1,0,3-3A3,3,0,0,0,63,63Zm4,0a1,1,0,1,1-1-1A1,1,0,0,1,67,63Z"/><path class="cls-1" d="M99.86,29.7a9,9,0,0,0-11.72,0l-1.79,1.54a1,1,0,0,0,0,1.52l1.79,1.54a9,9,0,0,0,11.72,0l1.79-1.54a1,1,0,0,0,0-1.52Zm-1.3,3.08a7,7,0,0,1-9.12,0l-.9-.78.9-.78a7,7,0,0,1,9.12,0l.9.78Z"/><path class="cls-1" d="M64.77,69.79a1,1,0,0,0-1.52,0l-2.19,2.55a12.33,12.33,0,0,0,0,16.14L63.25,91a1,1,0,0,0,1.52,0L67,88.48a12.33,12.33,0,0,0,0-16.14Zm.67,17.39L64,88.85l-1.43-1.67a10.35,10.35,0,0,1,0-13.54L64,72l1.43,1.67A10.35,10.35,0,0,1,65.44,87.18Z"/><path class="cls-1" d="M65.86,98.27a1,1,0,0,0,1,1.07h.08l2.76-.21a10.31,10.31,0,0,0,9.53-9.54l.22-2.76a1,1,0,0,0-.29-.78,1,1,0,0,0-.79-.29L75.6,86a10.31,10.31,0,0,0-9.53,9.54Zm2.2-2.61A8.32,8.32,0,0,1,75.76,88h0l1.59-.13-.12,1.6a8.31,8.31,0,0,1-7.7,7.69l-1.59.13Z"/><path class="cls-1" d="M58.94,99.13l2.76.21h.07a1,1,0,0,0,1-1.07l-.21-2.76A10.32,10.32,0,0,0,53,86l-2.76-.21a1,1,0,0,0-.78.29,1,1,0,0,0-.29.78l.21,2.76A10.32,10.32,0,0,0,58.94,99.13ZM52.87,88a8.3,8.3,0,0,1,7.69,7.69l.13,1.6-1.6-.13a8.29,8.29,0,0,1-7.69-7.69l-.13-1.6Z"/><path class="cls-1" d="M111,22a2,2,0,0,0,2-2V18a2,2,0,0,0-2-2H72a1,1,0,0,0-1,1V47a1,1,0,0,0,1,1h39a2,2,0,0,0,2-2V44a2,2,0,0,0-2-2,1,1,0,0,1-1-1V23A1,1,0,0,1,111,22ZM73,18h2V46H73Zm38,26v2H77V18h34v2a3,3,0,0,0-3,3V41A3,3,0,0,0,111,44Z"/><path class="cls-1" d="M112,104H16a1,1,0,0,0-1,1v8a1,1,0,0,0,1,1h96a1,1,0,0,0,1-1v-8A1,1,0,0,0,112,104Zm-1,8H17v-6h94Z"/></svg>