<?xml version="1.0" ?><!-- Uploaded to: SVG Repo, www.svgrepo.com, Generator: SVG Repo Mixer Tools -->
<svg fill="#000000" width="800px" height="800px" viewBox="0 0 96 96" id="Layer_1_1_" version="1.1" xml:space="preserve" xmlns="http://www.w3.org/2000/svg" xmlns:xlink="http://www.w3.org/1999/xlink"><path d="M34.571,61L32,67l2.285-0.457C36.091,66.182,37.927,66,39.769,66h16.462c1.841,0,3.678,0.182,5.484,0.543L64,67l-2.571-6H57  v-2h4.154l0.146-0.95c1.074-6.982,1.018-14.086-0.14-21.05H41v-2h20.333L64,27c-3.303,1.321-6.828,2-10.385,2h-11.23  c-3.557,0-7.082-0.679-10.385-2l2.667,8H38v2h-3.16c-1.157,6.964-1.214,14.069-0.14,21.05L34.846,59H53v2H34.571z M49,50.931V55h-2  v-4.069c-3.945-0.493-7-3.852-7-7.931c4.079,0,7.438,3.055,7.931,7h0.138c0.493-3.945,3.852-7,7.931-7  C56,47.079,52.945,50.438,49,50.931z"/><path d="M58,12c0-5.523-4.477-10-10-10S38,6.477,38,12c0,5.523,4.477,10,10,10S58,17.523,58,12z M49,14.41V18h-2v-3.59  c-2.837-0.477-5-2.938-5-5.91c2.795,0,5.136,1.914,5.803,4.5h0.393c0.667-2.586,3.009-4.5,5.803-4.5  C54,11.472,51.837,13.933,49,14.41z"/><path d="M84,38c-5.523,0-10,4.477-10,10c0,5.523,4.477,10,10,10s10-4.477,10-10C94,42.477,89.523,38,84,38z M85,50.41V54h-2v-3.59  c-2.837-0.477-5-2.938-5-5.91c2.795,0,5.136,1.914,5.803,4.5h0.393c0.667-2.586,3.009-4.5,5.803-4.5  C90,47.472,87.837,49.933,85,50.41z"/><path d="M22,48c0-5.523-4.477-10-10-10S2,42.477,2,48c0,5.523,4.477,10,10,10S22,53.523,22,48z M13,50.41V54h-2v-3.59  c-2.837-0.477-5-2.938-5-5.91c2.795,0,5.136,1.914,5.803,4.5h0.393c0.667-2.586,3.009-4.5,5.803-4.5  C18,47.472,15.837,49.933,13,50.41z"/><rect height="3" width="2" x="47" y="24"/><rect height="2" width="7" x="24" y="47"/><rect height="2" width="7" x="65" y="47"/><rect height="16" width="8" x="18" y="78"/><rect height="13" width="8" x="34" y="81"/><rect height="6" width="8" x="66" y="88"/><rect height="10" width="8" x="50" y="84"/><path d="M78.707,75.293l-1.414,1.414l3.224,3.224c-9.915-0.321-24.089-1.466-39.297-4.907c-8.062-1.824-16.097-4.168-23.883-6.966  l-0.676,1.883c7.863,2.825,15.977,5.191,24.118,7.034c15.294,3.46,29.545,4.621,39.547,4.951l-3.966,3.305l1.281,1.537l6-5  c0.216-0.181,0.346-0.442,0.358-0.724c0.013-0.28-0.093-0.554-0.292-0.752L78.707,75.293z"/></svg>