<?xml version="1.0" ?>
<!-- Uploaded to: SVG Repo, www.svgrepo.com, Generator: SVG Repo Mixer Tools -->
<svg fill="#000000" width="800px" height="800px" viewBox="0 0 100 100" version="1.1" xml:space="preserve" xmlns="http://www.w3.org/2000/svg" xmlns:xlink="http://www.w3.org/1999/xlink">
<g id="store"/>
<g id="groceries"/>
<g id="fruits"/>
<g id="bakery"/>
<g id="hygiene_product"/>
<g id="detergent"/>
<g id="cooking_oil"/>
<g id="snacks"/>
<g id="canned_food"/>
<g id="wheat_flour">
<g>
<path d="M85.1,85.9c4.8-28.5-0.8-45.3-1.1-46.2c1.5-1.8,2.2-4,2-6.3c-0.3-4-3.3-7.3-7.2-8.2c-0.2-0.5-0.6-0.8-0.9-1.1    c-0.2-0.2-0.4-0.4-0.5-0.5c0-0.1,0-0.3,0-0.5c0.1-0.5,0.2-1.3-0.4-2c-0.5-0.5-1.2-0.8-2-1.1c-0.4-0.2-0.9-0.3-1.1-0.5    c-0.2-0.1-0.3-0.3-0.5-0.6c-0.1-0.2-0.3-0.4-0.4-0.6V18c0-0.6-0.4-1-1-1h-3V8c0-2.2-1.8-4-4-4s-4,1.8-4,4v6.5    c-0.3-0.1-0.6-0.2-1-0.4c-0.6-0.3-1.3-0.6-2.1-0.7c-0.8-0.1-1.6,0-2.3,0.1c-0.6,0.1-1.2,0.2-1.7,0.1c-0.5,0-1-0.2-1.5-0.3    C51.6,13.2,50.8,13,50,13s-1.6,0.2-2.3,0.4c-0.5,0.1-1.1,0.3-1.5,0.3c-0.5,0-1.1,0-1.7-0.1c-0.8-0.1-1.6-0.2-2.3-0.1    c-0.8,0.1-1.5,0.4-2.1,0.7c-0.5,0.2-0.9,0.4-1.3,0.5c-0.5,0.1-1.1,0.1-1.7,0.1c-0.8,0-1.6,0-2.4,0.2c-0.8,0.2-1.4,0.6-1.9,1    c-0.3,0.3-0.6,0.5-1,0.6c-0.4,0.2-1,0.2-1.5,0.3c-0.8,0.1-1.6,0.2-2.3,0.6c-0.8,0.4-1.1,1-1.4,1.5c-0.2,0.3-0.3,0.5-0.5,0.6    c-0.2,0.2-0.7,0.4-1.1,0.5c-0.7,0.3-1.5,0.6-2,1.1c-0.6,0.7-0.5,1.5-0.4,2c0,0.2,0,0.4,0,0.4c-0.1,0.1-0.3,0.4-0.5,0.5    c-0.3,0.3-0.7,0.6-0.9,1.1c-2,0.4-3.8,1.5-5.2,3.1c-1.7,2.1-2.4,4.8-1.9,7.5c0.3,1.5,1,2.8,1.9,3.9c-0.4,1-5.9,17.8-1.1,46.2    l-0.6,2c-0.6,2-0.2,4.1,0.9,5.7c1.1,1.5,2.7,2.3,4.5,2.3h0.7c1.5,0,3-0.7,4.1-1.8l0.2-0.2c1.1-1.2,2.7-1.5,4.2-0.8    C32.7,95,39.8,96,50,96c0,0,0,0,0,0c0,0,0,0,0,0s0,0,0,0c0,0,0,0,0,0c10.2,0,17.2-1,21.1-2.8c1.5-0.7,3.1-0.4,4.2,0.8l0.2,0.2    c1.1,1.2,2.5,1.8,4.1,1.8h0.7c1.8,0,3.4-0.8,4.5-2.3c1.2-1.6,1.5-3.8,0.9-5.7L85.1,85.9z M74.3,21.9c0.4,0.1,1,0.4,1.2,0.5    c0,0.1,0,0.3,0,0.4c-0.1,0.4-0.1,0.9,0.1,1.5c0.1,0.2,0.2,0.4,0.4,0.6h-3v-3.7C73.4,21.5,73.9,21.7,74.3,21.9z M71,25H59v-6h3h6h3    V25z M63,8c0-1.1,0.9-2,2-2s2,0.9,2,2v9h-4V8z M24.6,22.9c0-0.2,0-0.4,0-0.4c0.1-0.2,0.8-0.4,1.2-0.6c0.6-0.2,1.1-0.4,1.6-0.8    c0.5-0.4,0.8-0.8,1-1.2c0.2-0.4,0.4-0.6,0.6-0.7c0.3-0.2,1-0.3,1.6-0.4c0.7-0.1,1.3-0.2,1.9-0.4c0.6-0.2,1.1-0.6,1.5-0.9    c0.4-0.3,0.8-0.6,1.2-0.7c0.5-0.1,1.2-0.1,1.8-0.1c0.7,0,1.4,0,2.1-0.1c0.7-0.1,1.2-0.4,1.8-0.6c0.5-0.2,1-0.5,1.6-0.5    c0.5-0.1,1.2,0,1.8,0.1c0.7,0.1,1.4,0.2,2.1,0.1c0.7,0,1.3-0.2,2-0.4c0.6-0.2,1.2-0.3,1.8-0.3s1.2,0.2,1.8,0.3    c0.6,0.2,1.3,0.3,1.9,0.4c0.7,0,1.4,0,2.1-0.1c0.7-0.1,1.3-0.2,1.8-0.1c0.5,0.1,1,0.3,1.6,0.5c0.5,0.2,1.1,0.5,1.8,0.6    c0,0,0,0,0,0V17h-3c-0.6,0-1,0.4-1,1v7H24c0.2-0.2,0.3-0.4,0.4-0.6C24.7,23.8,24.6,23.3,24.6,22.9z M17.6,29.6    c1.3-1.6,3.3-2.6,5.4-2.6h35h14h4.7c3.8,0,7,2.9,7.3,6.5c0.1,2-0.5,3.8-1.9,5.3C80.8,40.2,79,41,77,41c-2.3,0-4.5-1.2-5.8-3.1    c-0.2-0.2-0.4-0.4-0.7-0.4c-0.3,0-0.6,0-0.8,0.2C68.7,38.5,67.4,39,66,39c-1.7,0-3.3-0.7-4.4-1.9c-0.3-0.3-0.6-0.4-1-0.3    c-0.4,0.1-0.6,0.4-0.7,0.7c-0.5,2.1-2.3,3.5-4.4,3.5c-1.3,0-2.4-0.5-3.3-1.4c-1.2-1.2-3.3-1.2-4.4,0c-0.9,0.9-2,1.4-3.3,1.4    c-2.1,0-3.9-1.4-4.4-3.5c-0.1-0.4-0.4-0.6-0.7-0.7c-0.4-0.1-0.7,0-1,0.3C37.3,38.3,35.7,39,34,39c-1.4,0-2.7-0.5-3.7-1.3    c-0.2-0.2-0.5-0.2-0.8-0.2c-0.3,0-0.5,0.2-0.7,0.4c-1.6,2.3-4.3,3.5-7.1,3c-2.8-0.5-5-2.7-5.5-5.5C15.7,33.3,16.3,31.2,17.6,29.6z     M83,85.8c0,0.2,0,0.3,0,0.5l0.7,2.3c0.4,1.4,0.2,2.8-0.6,3.9c-0.7,1-1.8,1.5-2.9,1.5h-0.7c-1,0-1.9-0.4-2.6-1.2l-0.2-0.2    c-1.7-1.8-4.3-2.3-6.5-1.2C67.7,92.6,62.3,94,50,94c-12.3,0-17.7-1.4-20.2-2.6c-2.2-1.1-4.9-0.6-6.5,1.2L23,92.8    c-0.7,0.8-1.6,1.2-2.6,1.2h-0.7c-1.1,0-2.2-0.5-2.9-1.5c-0.8-1.1-1.1-2.6-0.6-3.9l0.7-2.3c0-0.1,0.1-0.3,0-0.5    c-4.2-24.6-0.4-40.7,0.7-44.6c1.1,0.8,2.3,1.3,3.7,1.6C21.9,43,22.5,43,23,43c2.6,0,5.1-1.1,6.8-3.2c2.7,1.6,6.3,1.5,8.9-0.4    c1.1,2.1,3.3,3.5,5.8,3.5c1.8,0,3.5-0.7,4.7-2c0.4-0.4,1.1-0.4,1.5,0c1.2,1.3,3,2,4.7,2c2.5,0,4.7-1.4,5.8-3.5    c2.6,1.9,6.2,2,8.9,0.4c1.7,2,4.2,3.2,6.9,3.2c1.9,0,3.8-0.6,5.3-1.8C83.4,45.1,87.3,61.1,83,85.8z"/>
<path d="M50,44c-11,0-20,9-20,20s9,20,20,20s20-9,20-20S61,44,50,44z M50,82c-9.9,0-18-8.1-18-18s8.1-18,18-18s18,8.1,18,18    S59.9,82,50,82z"/>
</g>
</g>
<g id="milk_powder"/>
<g id="coffee_powder"/>
<g id="tea_bag"/>
<g id="meat"/>
<g id="chicken"/>
<g id="cart"/>
<g id="sausage"/>
<g id="egg"/>
<g id="drink"/>
<g id="vegetable"/>
</svg>