<?xml version="1.0" encoding="iso-8859-1"?>
<!-- Uploaded to: SVG Repo, www.svgrepo.com, Generator: SVG Repo Mixer Tools -->
<svg fill="#000000" height="800px" width="800px" version="1.1" id="Layer_1" xmlns="http://www.w3.org/2000/svg" xmlns:xlink="http://www.w3.org/1999/xlink" 
	 viewBox="0 0 511.993 511.993" xml:space="preserve">
<g>
	<g>
		<path d="M162.904,209.451c-6.435,0-11.636,5.213-11.636,11.636v69.818c0,6.423,5.201,11.636,11.636,11.636
			c6.435,0,11.636-5.213,11.636-11.636v-69.818C174.54,214.664,169.339,209.451,162.904,209.451z"/>
	</g>
</g>
<g>
	<g>
		<path d="M349.086,209.451c-6.435,0-11.636,5.213-11.636,11.636v69.818c0,6.423,5.201,11.636,11.636,11.636
			c6.435,0,11.636-5.213,11.636-11.636v-69.818C360.722,214.664,355.521,209.451,349.086,209.451z"/>
	</g>
</g>
<g>
	<g>
		<path d="M290.904,69.815c-6.435,0-11.636,5.213-11.636,11.636v41.728l-49.955-49.955c-3.328-3.328-8.32-4.317-12.684-2.525
			c-4.352,1.804-7.18,6.051-7.18,10.752v69.818c0,6.423,5.201,11.636,11.636,11.636c6.435,0,11.636-5.213,11.636-11.636v-41.728
			l49.955,49.955c2.223,2.223,5.201,3.409,8.227,3.409c1.501,0,3.014-0.291,4.457-0.884c4.352-1.804,7.18-6.051,7.18-10.752V81.451
			C302.54,75.028,297.339,69.815,290.904,69.815z"/>
	</g>
</g>
<g>
	<g>
		<path d="M510.04,98.266c-3.561-5.341-10.775-6.807-16.14-3.223l-77.463,51.642c-5.83-4.375-12.986-7.052-20.806-7.052
			c-10.88,0-20.48,5.097-26.892,12.928l-25.763-13.952c-5.644-3.06-12.73-0.966-15.767,4.689
			c-3.072,5.644-0.966,12.707,4.678,15.767l28.858,15.628c0.07,15.081,9.786,27.811,23.261,32.617v97.385
			c-13.475,4.806-23.191,17.524-23.261,32.617l-81.478,44.137c-6.202-5.597-14.301-9.088-23.273-9.088s-17.071,3.491-23.261,9.076
			L151.256,337.3c-0.07-15.081-9.786-27.811-23.261-32.617v-97.385c13.463-4.806,23.191-17.524,23.261-32.617l28.835-15.616
			c5.644-3.06,7.75-10.124,4.678-15.767c-3.06-5.655-10.112-7.761-15.767-4.689l-25.74,13.94
			c-6.412-7.82-16.023-12.916-26.903-12.916c-19.247,0-34.909,15.663-34.909,34.909c0,15.151,9.751,27.951,23.273,32.768v97.385
			c-13.51,4.806-23.273,17.606-23.273,32.756c0,2.956,0.477,5.772,1.175,8.506l-77.44,51.63c-5.353,3.561-6.796,10.787-3.223,16.14
			c2.234,3.363,5.923,5.178,9.681,5.178c2.211,0,4.457-0.628,6.447-1.955l77.463-51.642c5.83,4.375,12.986,7.052,20.806,7.052
			c10.88,0,20.48-5.097,26.892-12.928l78.383,42.449c-0.279,1.78-0.547,3.549-0.547,5.388c0,19.247,15.663,34.909,34.909,34.909
			s34.909-15.663,34.909-34.909c0-1.839-0.268-3.607-0.547-5.376l78.383-42.449c6.4,7.82,16.012,12.916,26.892,12.916
			c19.247,0,34.909-15.663,34.909-34.909c0-15.151-9.751-27.951-23.273-32.768v-97.385c13.51-4.817,23.273-17.617,23.273-32.768
			c0-2.956-0.477-5.772-1.175-8.506l77.44-51.631C512.158,110.845,513.601,103.618,510.04,98.266z M116.359,162.906
			c6.423,0,11.636,5.225,11.636,11.636s-5.213,11.636-11.636,11.636s-11.636-5.225-11.636-11.636S109.935,162.906,116.359,162.906z
			 M116.359,349.087c-6.423,0-11.636-5.225-11.636-11.636c0-6.412,5.213-11.636,11.636-11.636s11.636,5.225,11.636,11.636
			C127.995,343.863,122.782,349.087,116.359,349.087z M255.995,418.906c-6.423,0-11.636-5.225-11.636-11.636
			s5.213-11.636,11.636-11.636s11.636,5.225,11.636,11.636S262.418,418.906,255.995,418.906z M395.631,349.087
			c-6.423,0-11.636-5.225-11.636-11.636c0-6.412,5.213-11.636,11.636-11.636c6.423,0,11.636,5.225,11.636,11.636
			C407.268,343.863,402.055,349.087,395.631,349.087z M395.631,186.178c-6.423,0-11.636-5.225-11.636-11.636
			s5.213-11.636,11.636-11.636c6.423,0,11.636,5.225,11.636,11.636S402.055,186.178,395.631,186.178z"/>
	</g>
</g>
</svg>